<svg width="21" height="18" viewBox="0 0 21 18" fill="none" xmlns="http://www.w3.org/2000/svg">
<path fill-rule="evenodd" clip-rule="evenodd" d="M0.659938 5.71975C0.961006 2.77873 3.2731 0.625 6.17335 0.625C7.88403 0.625 9.43649 1.37511 10.4513 2.6488C11.4847 1.38664 13.094 0.625331 14.8266 0.625331C17.7274 0.625331 20.0391 2.77932 20.3404 5.72053C20.3723 5.91292 20.4502 6.60251 20.1696 7.67833C19.7537 9.27473 18.7957 10.7155 17.4141 11.8496L17.4118 11.8515L10.4411 17.4837L3.58588 11.8493C3.58581 11.8493 3.58596 11.8494 3.58588 11.8493C2.20433 10.7155 1.2462 9.27427 0.83034 7.6783M0.659938 5.71975C0.627297 5.91385 0.550067 6.60348 0.83034 7.6783ZM10.4297 3.94958C10.4351 3.96084 10.4404 3.97212 10.4457 3.98344C10.4536 3.96661 10.4616 3.94985 10.4696 3.93315L10.4441 3.9719L10.4297 3.94958ZM6.17335 2.03691C4.05963 2.03691 2.35146 3.63419 2.13134 5.87912L2.13015 5.89122L2.1227 5.93663C2.11608 5.98201 2.10237 6.08803 2.10641 6.27518C2.11151 6.51136 2.14576 6.87031 2.26751 7.33713C2.6054 8.63332 3.39023 9.82509 4.55277 10.7791L10.4495 15.626L16.4494 10.7777C16.4497 10.7774 16.4501 10.7771 16.4504 10.7768C17.6101 9.82504 18.3949 8.63337 18.7324 7.3376C18.8541 6.8708 18.8884 6.51164 18.8935 6.27522C18.8983 6.04677 18.8764 5.93049 18.8755 5.92572L18.8744 5.91837L18.8737 5.91115C18.6488 3.6329 16.9387 2.03724 14.8269 2.03724C13.2099 2.03724 11.7607 2.93759 11.1221 4.30748L10.4457 5.7596L9.7693 4.30754C9.76928 4.30749 9.76933 4.3076 9.7693 4.30754C9.11629 2.90765 7.74235 2.03691 6.17335 2.03691Z" fill="#1B1A17"/>
</svg>
