<svg width="20" height="20" viewBox="0 0 20 20" fill="none" xmlns="http://www.w3.org/2000/svg">
<path fill-rule="evenodd" clip-rule="evenodd" d="M19.5798 10.4593C19.5797 10.461 19.5797 10.4627 19.5796 10.4644C19.4166 13.7142 17.6045 16.8008 14.5279 18.4505C14.523 18.4532 14.5182 18.4558 14.5133 18.4584C12.7203 19.4159 10.7593 19.7464 8.88208 19.5261C8.71474 19.5064 8.54807 19.4824 8.38224 19.454C5.56457 18.9724 2.99057 17.2423 1.53511 14.5279C-0.969563 9.85684 0.786652 4.03975 5.45773 1.53508C6.4122 1.02328 7.41453 0.689395 8.42667 0.521929C8.59318 0.494379 8.75996 0.471332 8.92683 0.452739C10.6573 0.25993 12.3981 0.545992 13.9604 1.2539C13.9653 1.25615 13.9703 1.25841 13.9753 1.26067C15.8218 2.10118 17.4178 3.53164 18.4506 5.4577C19.3047 7.05056 19.6633 8.77668 19.5798 10.4593ZM8.42428 1.5376L8.38463 18.4383C5.92352 17.9681 3.69125 16.4329 2.41641 14.0554C0.172723 9.87101 1.74594 4.66006 5.93029 2.41638C6.7344 1.98521 7.57494 1.69541 8.42428 1.5376ZM9.38432 18.5694L9.42458 1.41237C10.8453 1.31924 12.2634 1.58285 13.5476 2.16475C15.2074 2.91685 16.6411 4.19929 17.5693 5.93026C18.3359 7.36001 18.6564 8.90668 18.5808 10.4143C18.4347 13.3285 16.8103 16.092 14.0554 17.5692C12.567 18.3673 10.9511 18.6822 9.38432 18.5694Z" fill="url(#paint0_linear_35_14)"/>
<defs>
<linearGradient id="paint0_linear_35_14" x1="0.755987" y1="8.72312" x2="20.9646" y2="9.99184" gradientUnits="userSpaceOnUse">
<stop offset="0.288448" stop-color="#555248"/>
<stop offset="0.780176" stop-color="#1B1A17" stop-opacity="0"/>
</linearGradient>
</defs>
</svg>
