<svg width="26" height="26" viewBox="0 0 26 26" fill="none" xmlns="http://www.w3.org/2000/svg">
<path fill-rule="evenodd" clip-rule="evenodd" d="M25.5425 13.606C25.5423 13.6094 25.5422 13.6128 25.542 13.6163C25.3288 17.8681 22.9579 21.9065 18.9327 24.0649C18.9229 24.0701 18.9131 24.0754 18.9033 24.0806C16.5602 25.3292 13.9984 25.76 11.5459 25.472C11.2104 25.4327 10.8769 25.3798 10.5463 25.3138C6.99578 24.6045 3.77808 22.3728 1.93351 18.9327C-1.34348 12.8213 0.954268 5.21054 7.06567 1.93356C8.2056 1.32231 9.3977 0.905028 10.6041 0.670267C10.9367 0.605539 11.2705 0.554687 11.6045 0.517472C13.8685 0.26521 16.1461 0.639479 18.1901 1.56567C18.2 1.57017 18.21 1.57469 18.2199 1.57921C20.6315 2.67953 22.7155 4.54934 24.0648 7.06572C25.1817 9.14861 25.651 11.4057 25.5425 13.606ZM10.5993 2.71634L10.5511 23.2678C7.7167 22.5911 5.17906 20.7532 3.69611 17.9876C0.941095 12.8497 2.87284 6.45116 8.01079 3.69615C8.84903 3.24668 9.71867 2.92256 10.5993 2.71634ZM12.5504 23.5477L12.5999 2.44785C14.2435 2.38713 15.877 2.71329 17.3646 3.38738C19.4027 4.31087 21.1622 5.88464 22.3022 8.01084C23.2442 9.76751 23.6373 11.6657 23.5445 13.5161C23.3649 17.0967 21.3696 20.4888 17.9876 22.3023C16.2533 23.2322 14.38 23.6277 12.5504 23.5477Z" fill="url(#paint0_linear_389_10)"/>
<defs>
<linearGradient id="paint0_linear_389_10" x1="0.914146" y1="11.338" x2="27.354" y2="12.9979" gradientUnits="userSpaceOnUse">
<stop offset="0.288448" stop-color="white"/>
<stop offset="0.780176" stop-color="white" stop-opacity="0"/>
</linearGradient>
</defs>
</svg>
