<svg style="display: none;" aria-hidden="true" xmlns="http://www.w3.org/2000/svg" xmlns:xlink="http://www.w3.org/1999/xlink"><symbol viewBox="0 0 18 16" id="svg-cart"><path d="M17.8961 3.05165C17.7931 2.91217 17.6273 2.82596 17.4472 2.8187L6.28162 2.36414C5.96126 2.3509 5.69355 2.58449 5.67986 2.88566C5.66624 3.1867 5.91317 3.44107 6.232 3.45401L16.6416 3.87783L14.5949 9.90922H5.48658L3.84103 1.44688C3.80486 1.26141 3.67004 1.10668 3.4841 1.03778L0.788965 0.0377747C0.491928 -0.0720606 0.156743 0.0657377 0.0400874 0.345938C-0.0763672 0.62629 0.0694931 0.943051 0.36637 1.05323L2.76277 1.94237L4.43736 10.5532C4.48784 10.8121 4.72671 11.0001 5.0055 11.0001H5.28328L4.64896 12.6642C4.59587 12.8036 4.61775 12.9584 4.7081 13.0795C4.79833 13.2006 4.94508 13.2727 5.10173 13.2727H5.54664C5.27095 13.5625 5.10173 13.944 5.10173 14.3636C5.10173 15.266 5.87913 16 6.83433 16C7.78953 16 8.56693 15.266 8.56693 14.3636C8.56693 13.9441 8.39771 13.5625 8.12206 13.2727H11.8996C11.6237 13.5625 11.4546 13.944 11.4546 14.3636C11.4546 15.266 12.2318 16 13.1872 16C14.1426 16 14.9198 15.266 14.9198 14.3636C14.9198 13.9441 14.7506 13.5625 14.475 13.2727H15.016C15.2819 13.2727 15.4973 13.0692 15.4973 12.8182C15.4973 12.5671 15.2819 12.3636 15.016 12.3636H5.78652L6.30624 11H15.016C15.2672 11 15.4894 10.8467 15.5659 10.621L17.9723 3.52998C18.0275 3.36814 17.9992 3.19119 17.8961 3.05165ZM6.83437 15.0911C6.40968 15.0911 6.0643 14.7649 6.0643 14.3638C6.0643 13.9627 6.40968 13.6365 6.83437 13.6365C7.25906 13.6365 7.6044 13.9627 7.6044 14.3638C7.6044 14.7649 7.25906 15.0911 6.83437 15.0911ZM13.1872 15.0911C12.7625 15.0911 12.4171 14.7649 12.4171 14.3638C12.4171 13.9627 12.7625 13.6365 13.1872 13.6365C13.6119 13.6365 13.9572 13.9627 13.9572 14.3638C13.9572 14.7649 13.6119 15.0911 13.1872 15.0911Z"/></symbol><symbol viewBox="0 0 9 17" id="svg-facebook"><path d="M6.62377 0C4.27168 0 2.66088 1.40792 2.66088 3.99443V6.22354H0V9.24668H2.66088V17H5.84158V9.24668H8.49505L8.89357 6.22354H5.84158V4.2931C5.84158 3.41809 6.08977 2.8216 7.36882 2.8216H9V0.118982C8.71786 0.0821513 7.75042 0 6.62377 0Z"/></symbol><symbol viewBox="0 0 21 18" id="svg-heart"><path fill-rule="evenodd" clip-rule="evenodd" d="M0.659938 5.71975C0.961006 2.77873 3.2731 0.625 6.17335 0.625C7.88403 0.625 9.43649 1.37511 10.4513 2.6488C11.4847 1.38664 13.094 0.625331 14.8266 0.625331C17.7274 0.625331 20.0391 2.77932 20.3404 5.72053C20.3723 5.91292 20.4502 6.60251 20.1696 7.67833C19.7537 9.27473 18.7957 10.7155 17.4141 11.8496L17.4118 11.8515L10.4411 17.4837L3.58588 11.8493C3.58581 11.8493 3.58596 11.8494 3.58588 11.8493C2.20433 10.7155 1.2462 9.27427 0.83034 7.6783M0.659938 5.71975C0.627297 5.91385 0.550067 6.60348 0.83034 7.6783ZM10.4297 3.94958C10.4351 3.96084 10.4404 3.97212 10.4457 3.98344C10.4536 3.96661 10.4616 3.94985 10.4696 3.93315L10.4441 3.9719L10.4297 3.94958ZM6.17335 2.03691C4.05963 2.03691 2.35146 3.63419 2.13134 5.87912L2.13015 5.89122L2.1227 5.93663C2.11608 5.98201 2.10237 6.08803 2.10641 6.27518C2.11151 6.51136 2.14576 6.87031 2.26751 7.33713C2.6054 8.63332 3.39023 9.82509 4.55277 10.7791L10.4495 15.626L16.4494 10.7777C16.4497 10.7774 16.4501 10.7771 16.4504 10.7768C17.6101 9.82504 18.3949 8.63337 18.7324 7.3376C18.8541 6.8708 18.8884 6.51164 18.8935 6.27522C18.8983 6.04677 18.8764 5.93049 18.8755 5.92572L18.8744 5.91837L18.8737 5.91115C18.6488 3.6329 16.9387 2.03724 14.8269 2.03724C13.2099 2.03724 11.7607 2.93759 11.1221 4.30748L10.4457 5.7596L9.7693 4.30754C9.76928 4.30749 9.76933 4.3076 9.7693 4.30754C9.11629 2.90765 7.74235 2.03691 6.17335 2.03691Z"/></symbol><symbol viewBox="0 0 18 16" id="svg-heart_full"><path d="M8.94618 2.82644C9.67267 1.16278 11.3323 0.000347801 13.2627 0.000347801C15.863 0.000347801 17.7358 2.14957 17.9712 4.71096C17.9712 4.71096 18.0983 5.34678 17.8186 6.49148C17.4377 8.05044 16.5423 9.43548 15.3352 10.4925L8.94618 16L2.66477 10.4922C1.45767 9.43548 0.562332 8.05009 0.181444 6.49113C-0.0982812 5.34644 0.0288013 4.71061 0.0288013 4.71061C0.264246 2.14922 2.137 0 4.73734 0C6.66805 0 8.21968 1.16278 8.94618 2.82644Z"/></symbol><symbol viewBox="0 0 18 18" id="svg-instagram"><path d="M5.20991 0C2.3366 0 0 2.34361 0 5.22393V12.7774C0 15.6577 2.3366 18 5.20991 18H12.7901C15.6634 18 18 15.6577 18 12.7774V5.22393C18 2.34361 15.6634 0 12.7901 0H5.20991ZM5.20991 1.54741H12.7901C14.835 1.54741 16.4577 3.17398 16.4577 5.22393V12.7774C16.4577 14.8273 14.835 16.4526 12.7901 16.4526H5.20991C3.16493 16.4526 1.54362 14.8273 1.54362 12.7774V5.22393C1.54362 3.17398 3.16493 1.54741 5.20991 1.54741ZM13.8308 3.0948C13.2345 3.0948 12.7514 3.57909 12.7514 4.17682C12.7514 4.77457 13.2345 5.25884 13.8308 5.25884C14.4271 5.25884 14.9102 4.77457 14.9102 4.17682C14.9102 3.57909 14.4271 3.0948 13.8308 3.0948ZM9 4.36555C6.45569 4.36555 4.37685 6.44948 4.37685 9C4.37685 11.5505 6.45569 13.6344 9 13.6344C11.5443 13.6344 13.6244 11.5505 13.6244 9C13.6244 6.44948 11.5443 4.36555 9 4.36555ZM9 5.91296C10.7102 5.91296 12.0808 7.28561 12.0808 9C12.0808 10.7144 10.7102 12.087 9 12.087C7.28978 12.087 5.92047 10.7144 5.92047 9C5.92047 7.28561 7.28978 5.91296 9 5.91296Z"/></symbol><symbol viewBox="0 0 16 16" id="svg-search"><path d="M15.8041 14.8637L11.9576 11.0171C12.911 9.85469 13.4857 8.36571 13.4857 6.74286C13.4857 3.02041 10.4653 0 6.74286 0C3.01714 0 0 3.02041 0 6.74286C0 10.4653 3.01714 13.4857 6.74286 13.4857C8.36571 13.4857 9.85143 12.9143 11.0139 11.9608L14.8604 15.8041C15.1216 16.0653 15.5429 16.0653 15.8041 15.8041C16.0653 15.5461 16.0653 15.1216 15.8041 14.8637ZM6.74286 12.1437C3.76163 12.1437 1.33878 9.72082 1.33878 6.74286C1.33878 3.7649 3.76163 1.33878 6.74286 1.33878C9.72082 1.33878 12.1469 3.7649 12.1469 6.74286C12.1469 9.72082 9.72082 12.1437 6.74286 12.1437Z"/></symbol><symbol viewBox="0 0 17 14" id="svg-twitter"><path d="M17 1.65702C16.3748 1.93818 15.7026 2.1282 14.9972 2.21381C15.7171 1.7762 16.2699 1.0836 16.5303 0.258489C15.8565 0.663669 15.1104 0.957564 14.3156 1.11598C13.6797 0.429253 12.7733 0 11.7702 0C9.84399 0 8.28278 1.58229 8.28278 3.53421C8.28278 3.81132 8.31334 4.08115 8.37304 4.33966C5.47446 4.19246 2.90469 2.78497 1.18455 0.646903C0.884335 1.16866 0.712366 1.7757 0.712366 2.42352C0.712366 3.64988 1.32781 4.73148 2.26388 5.36553C1.69221 5.34741 1.15438 5.18836 0.684154 4.92345C0.683485 4.93834 0.68348 4.95302 0.68348 4.96781C0.68348 6.68053 1.88579 8.10868 3.48108 8.43358C3.18868 8.51437 2.88065 8.55709 2.56255 8.55709C2.33759 8.55709 2.11949 8.53552 1.90617 8.49408C2.35027 9.89816 3.63801 10.9201 5.1644 10.9487C3.96982 11.8968 2.46628 12.4616 0.832201 12.4616C0.55089 12.4616 0.273057 12.4448 0 12.4123C1.54405 13.4151 3.37699 14 5.34672 14C11.7614 14 15.2689 8.61468 15.2689 3.94383C15.2689 3.79067 15.2654 3.63855 15.2591 3.48698C15.9402 2.98827 16.5314 2.36595 16.9992 1.65705"/></symbol></svg>